<svg width="51" height="68" viewBox="0 0 51 68" fill="none" xmlns="http://www.w3.org/2000/svg">
<path d="M28.3236 66.9818L22.959 50.8695L28.7528 46.2005L19.6401 35.7883L22.4583 31.8784L15.1482 28.2692L11.0568 18.2008L5.87003 10.696L1 3.64958L11.7292 5.9984L13.976 9.24951L17.0222 3.36314L21.3568 1L27.6369 3.03373L36.8211 18.2008L39.8253 23.2995L42.3573 24.8749L43.8451 23.2995L47.2928 22.9557L49.8105 25.9705L50.254 30.7326L47.6647 34.7428L42.3573 31.8784L38.5592 33.8334L34.7611 35.7883L30.2692 32.5658L36.678 43.6511L34.7611 63.8882L30.2692 54.5905L28.3236 66.9818Z" fill="white"/>
<path d="M22.4583 31.8784L19.6401 35.7883L28.7528 46.2005L22.959 50.8695L28.3236 66.9818L30.2692 54.5905M22.4583 31.8784L15.1482 28.2692L11.0568 18.2008M22.4583 31.8784L27.6369 31.1623M22.4583 31.8784L17.0222 23.2995V19.1604M11.0568 18.2008L5.87003 10.696M11.0568 18.2008L11.7292 14.8065M39.8253 27.9398L22.4583 21.5235L13.976 9.24951M39.8253 27.9398L41.6278 26.8657M39.8253 27.9398L40.1257 29.773M42.3573 31.8784L47.6647 34.7428L50.254 30.7326L49.8105 25.9705L47.2928 22.9557L43.8451 23.2995L42.3573 24.8749M42.3573 31.8784L38.5592 33.8334M42.3573 31.8784L40.1257 29.773M30.2692 32.5658L34.7611 35.7883L38.5592 33.8334M30.2692 32.5658L36.678 43.6511L34.7611 63.8882L30.2692 54.5905M30.2692 32.5658L27.6369 31.1623M13.976 9.24951L11.7292 5.9984L1 3.64958L5.87003 10.696M13.976 9.24951L17.0222 3.36314L21.3568 1L27.6369 3.03373L36.8211 18.2008L39.8253 23.2995L42.3573 24.8749M42.3573 24.8749L41.6278 26.8657M5.87003 10.696L11.7292 14.8065M38.5592 33.8334L22.4583 23.5257M38.5592 33.8334L40.1257 29.773M27.6369 31.1623L25.8774 37.464L33.0301 44.5105L30.2692 54.5905M27.6369 31.1623L22.4583 24.8749V23.5257M17.0222 19.1604L22.4583 23.5257M17.0222 19.1604L11.7292 14.8065M41.6278 26.8657L41.356 28.8564L40.1257 29.773" stroke="#1E1E1E" stroke-width="0.696991"/>
</svg>
