<svg width="38" height="50" viewBox="0 0 38 50" fill="none" xmlns="http://www.w3.org/2000/svg">
<path d="M20.8866 48.9451L16.993 37.2506L21.1981 33.8618L14.5841 26.3046L16.6296 23.4667L11.3238 20.8472L8.35422 13.5394L4.58961 8.09238L1.0549 2.97799L8.84223 4.68279L10.473 7.04247L12.684 2.77009L15.8301 1.0549L20.3882 2.531L27.0542 13.5394L29.2346 17.2401L31.0724 18.3835L32.1523 17.2401L34.6546 16.9906L36.482 19.1787L36.8039 22.6351L34.9246 25.5457L31.0724 23.4667L28.3157 24.8857L25.559 26.3046L22.2987 23.9657L26.9504 32.0115L25.559 46.6998L22.2987 39.9513L20.8866 48.9451Z" fill="#1E1E1E"/>
<path d="M16.6296 23.4667L14.5841 26.3046L21.1981 33.8618L16.993 37.2506L20.8866 48.9451L22.2987 39.9513M16.6296 23.4667L11.3238 20.8472L8.35422 13.5394M16.6296 23.4667L20.3882 22.947M16.6296 23.4667L12.684 17.2401V14.2359M8.35422 13.5394L4.58961 8.09238M8.35422 13.5394L8.84223 11.0758M29.2346 20.6081L16.6296 15.9511L10.473 7.04247M29.2346 20.6081L30.5429 19.8284M29.2346 20.6081L29.4527 21.9386M31.0724 23.4667L34.9246 25.5457L36.8039 22.6351L36.482 19.1787L34.6546 16.9906L32.1523 17.2401L31.0724 18.3835M31.0724 23.4667L28.3157 24.8857M31.0724 23.4667L29.4527 21.9386M22.2987 23.9657L25.559 26.3046L28.3157 24.8857M22.2987 23.9657L26.9504 32.0115L25.559 46.6998L22.2987 39.9513M22.2987 23.9657L20.3882 22.947M10.473 7.04247L8.84223 4.68279L1.0549 2.97799L4.58961 8.09238M10.473 7.04247L12.684 2.77009L15.8301 1.0549L20.3882 2.531L27.0542 13.5394L29.2346 17.2401L31.0724 18.3835M31.0724 18.3835L30.5429 19.8284M4.58961 8.09238L8.84223 11.0758M28.3157 24.8857L16.6296 17.4042M28.3157 24.8857L29.4527 21.9386M20.3882 22.947L19.1111 27.5208L24.3027 32.6352L22.2987 39.9513M20.3882 22.947L16.6296 18.3835V17.4042M12.684 14.2359L16.6296 17.4042M12.684 14.2359L8.84223 11.0758M30.5429 19.8284L30.3456 21.2734L29.4527 21.9386" stroke="white" stroke-width="0.505882"/>
</svg>
